<svg width="633" height="289" viewBox="0 0 633 289" fill="none" xmlns="http://www.w3.org/2000/svg">
<path d="M64.47 5.74V23.55H27.29V42.79H55.11V60.08H27.29V97H5.06V5.74H64.47ZM117.624 98.04C110.517 98.04 104.104 96.5233 98.3837 93.49C92.7504 90.4567 88.2871 86.1233 84.9937 80.49C81.7871 74.8567 80.1837 68.27 80.1837 60.73C80.1837 53.2767 81.8304 46.7333 85.1237 41.1C88.4171 35.38 92.9237 31.0033 98.6437 27.97C104.364 24.9367 110.777 23.42 117.884 23.42C124.99 23.42 131.404 24.9367 137.124 27.97C142.844 31.0033 147.35 35.38 150.644 41.1C153.937 46.7333 155.584 53.2767 155.584 60.73C155.584 68.1833 153.894 74.77 150.514 80.49C147.22 86.1233 142.67 90.4567 136.864 93.49C131.144 96.5233 124.73 98.04 117.624 98.04ZM117.624 78.8C121.87 78.8 125.467 77.24 128.414 74.12C131.447 71 132.964 66.5367 132.964 60.73C132.964 54.9233 131.49 50.46 128.544 47.34C125.684 44.22 122.13 42.66 117.884 42.66C113.55 42.66 109.954 44.22 107.094 47.34C104.234 50.3733 102.804 54.8367 102.804 60.73C102.804 66.5367 104.19 71 106.964 74.12C109.824 77.24 113.377 78.8 117.624 78.8ZM198.057 36.55C200.657 32.5633 203.907 29.4433 207.807 27.19C211.707 24.85 216.041 23.68 220.807 23.68V47.21H214.697C209.151 47.21 204.991 48.4233 202.217 50.85C199.444 53.19 198.057 57.35 198.057 63.33V97H175.827V24.46H198.057V36.55ZM344.013 24.46L324.383 97H299.813L288.373 49.94L276.543 97H252.103L232.343 24.46H254.573L264.843 76.33L277.063 24.46H300.593L312.943 76.07L323.083 24.46H344.013ZM70.71 161.74V179.55H46.53V253H24.3V179.55H0.12V161.74H70.71ZM134.907 179.68C143.227 179.68 149.9 182.453 154.927 188C159.953 193.46 162.467 201 162.467 210.62V253H140.367V213.61C140.367 208.757 139.11 204.987 136.597 202.3C134.083 199.613 130.703 198.27 126.457 198.27C122.21 198.27 118.83 199.613 116.317 202.3C113.803 204.987 112.547 208.757 112.547 213.61V253H90.3166V156.8H112.547V190.21C114.8 187.003 117.877 184.447 121.777 182.54C125.677 180.633 130.053 179.68 134.907 179.68ZM197.544 172.92C193.644 172.92 190.438 171.793 187.924 169.54C185.498 167.2 184.284 164.34 184.284 160.96C184.284 157.493 185.498 154.633 187.924 152.38C190.438 150.04 193.644 148.87 197.544 148.87C201.358 148.87 204.478 150.04 206.904 152.38C209.418 154.633 210.674 157.493 210.674 160.96C210.674 164.34 209.418 167.2 206.904 169.54C204.478 171.793 201.358 172.92 197.544 172.92ZM208.594 180.46V253H186.364V180.46H208.594ZM277.354 179.68C285.847 179.68 292.607 182.453 297.634 188C302.747 193.46 305.304 201 305.304 210.62V253H283.204V213.61C283.204 208.757 281.947 204.987 279.434 202.3C276.921 199.613 273.541 198.27 269.294 198.27C265.047 198.27 261.667 199.613 259.154 202.3C256.641 204.987 255.384 208.757 255.384 213.61V253H233.154V180.46H255.384V190.08C257.637 186.873 260.671 184.36 264.484 182.54C268.297 180.633 272.587 179.68 277.354 179.68Z" fill="black"/>
<path d="M356.52 60.6C356.52 53.1467 357.907 46.6033 360.68 40.97C363.54 35.3367 367.397 31.0033 372.25 27.97C377.103 24.9367 382.52 23.42 388.5 23.42C393.613 23.42 398.077 24.46 401.89 26.54C405.79 28.62 408.78 31.35 410.86 34.73V24.46H433.09V97H410.86V86.73C408.693 90.11 405.66 92.84 401.76 94.92C397.947 97 393.483 98.04 388.37 98.04C382.477 98.04 377.103 96.5233 372.25 93.49C367.397 90.37 363.54 85.9933 360.68 80.36C357.907 74.64 356.52 68.0533 356.52 60.6ZM410.86 60.73C410.86 55.1833 409.3 50.8067 406.18 47.6C403.147 44.3933 399.42 42.79 395 42.79C390.58 42.79 386.81 44.3933 383.69 47.6C380.657 50.72 379.14 55.0533 379.14 60.6C379.14 66.1467 380.657 70.5667 383.69 73.86C386.81 77.0667 390.58 78.67 395 78.67C399.42 78.67 403.147 77.0667 406.18 73.86C409.3 70.6533 410.86 66.2767 410.86 60.73ZM479.853 36.55C482.453 32.5633 485.703 29.4433 489.603 27.19C493.503 24.85 497.836 23.68 502.603 23.68V47.21H496.493C490.946 47.21 486.786 48.4233 484.013 50.85C481.239 53.19 479.853 57.35 479.853 63.33V97H457.623V24.46H479.853V36.55ZM517.258 60.6C517.258 53.1467 518.645 46.6033 521.418 40.97C524.278 35.3367 528.135 31.0033 532.988 27.97C537.841 24.9367 543.258 23.42 549.238 23.42C554.005 23.42 558.338 24.4167 562.238 26.41C566.225 28.4033 569.345 31.09 571.598 34.47V0.799999H593.828V97H571.598V86.6C569.518 90.0667 566.528 92.84 562.628 94.92C558.815 97 554.351 98.04 549.238 98.04C543.258 98.04 537.841 96.5233 532.988 93.49C528.135 90.37 524.278 85.9933 521.418 80.36C518.645 74.64 517.258 68.0533 517.258 60.6ZM571.598 60.73C571.598 55.1833 570.038 50.8067 566.918 47.6C563.885 44.3933 560.158 42.79 555.738 42.79C551.318 42.79 547.548 44.3933 544.428 47.6C541.395 50.72 539.878 55.0533 539.878 60.6C539.878 66.1467 541.395 70.5667 544.428 73.86C547.548 77.0667 551.318 78.67 555.738 78.67C560.158 78.67 563.885 77.0667 566.918 73.86C570.038 70.6533 571.598 66.2767 571.598 60.73ZM373.532 253L351.432 222.58V253H329.202V156.8H351.432V209.97L373.402 180.46H400.832L370.672 216.86L401.092 253H373.532ZM429.193 172.92C425.293 172.92 422.086 171.793 419.573 169.54C417.146 167.2 415.933 164.34 415.933 160.96C415.933 157.493 417.146 154.633 419.573 152.38C422.086 150.04 425.293 148.87 429.193 148.87C433.006 148.87 436.126 150.04 438.553 152.38C441.066 154.633 442.323 157.493 442.323 160.96C442.323 164.34 441.066 167.2 438.553 169.54C436.126 171.793 433.006 172.92 429.193 172.92ZM440.243 180.46V253H418.013V180.46H440.243ZM509.003 179.68C517.496 179.68 524.256 182.453 529.283 188C534.396 193.46 536.953 201 536.953 210.62V253H514.853V213.61C514.853 208.757 513.596 204.987 511.083 202.3C508.57 199.613 505.19 198.27 500.943 198.27C496.696 198.27 493.316 199.613 490.803 202.3C488.29 204.987 487.033 208.757 487.033 213.61V253H464.803V180.46H487.033V190.08C489.286 186.873 492.32 184.36 496.133 182.54C499.946 180.633 504.236 179.68 509.003 179.68ZM588.411 179.42C593.524 179.42 597.987 180.46 601.801 182.54C605.701 184.62 608.691 187.35 610.771 190.73V180.46H633.001V252.87C633.001 259.543 631.657 265.567 628.971 270.94C626.371 276.4 622.341 280.733 616.881 283.94C611.507 287.147 604.791 288.75 596.731 288.75C585.984 288.75 577.274 286.193 570.601 281.08C563.927 276.053 560.114 269.207 559.161 260.54H581.131C581.824 263.313 583.471 265.48 586.071 267.04C588.671 268.687 591.877 269.51 595.691 269.51C600.284 269.51 603.924 268.167 606.611 265.48C609.384 262.88 610.771 258.677 610.771 252.87V242.6C608.604 245.98 605.614 248.753 601.801 250.92C597.987 253 593.524 254.04 588.411 254.04C582.431 254.04 577.014 252.523 572.161 249.49C567.307 246.37 563.451 241.993 560.591 236.36C557.817 230.64 556.431 224.053 556.431 216.6C556.431 209.147 557.817 202.603 560.591 196.97C563.451 191.337 567.307 187.003 572.161 183.97C577.014 180.937 582.431 179.42 588.411 179.42ZM610.771 216.73C610.771 211.183 609.211 206.807 606.091 203.6C603.057 200.393 599.331 198.79 594.911 198.79C590.491 198.79 586.721 200.393 583.601 203.6C580.567 206.72 579.051 211.053 579.051 216.6C579.051 222.147 580.567 226.567 583.601 229.86C586.721 233.067 590.491 234.67 594.911 234.67C599.331 234.67 603.057 233.067 606.091 229.86C609.211 226.653 610.771 222.277 610.771 216.73Z" fill="white"/>
</svg>
